grf
version=1
nRows=19
nColumns=37
inDegrees=no
endheader
time	ground_force_1_vx	ground_force_1_vy	ground_force_1_vz	ground_force_1_px	ground_force_1_py	ground_force_1_pz	ground_moment_1_mx	ground_moment_1_my	ground_moment_1_mz	ground_force_2_vx	ground_force_2_vy	ground_force_2_vz	ground_force_2_px	ground_force_2_py	ground_force_2_pz	ground_moment_2_mx	ground_moment_2_my	ground_moment_2_mz	ground_force_3_vx	ground_force_3_vy	ground_force_3_vz	ground_force_3_px	ground_force_3_py	ground_force_3_pz	ground_moment_3_mx	ground_moment_3_my	ground_moment_3_mz	ground_force_4_vx	ground_force_4_vy	ground_force_4_vz	ground_force_4_px	ground_force_4_py	ground_force_4_pz	ground_moment_4_mx	ground_moment_4_my	ground_moment_4_mz
      4.19000000	      0.00000000	     -0.00000000	      0.00000000	      0.00000000	      0.00000000	      0.00000000	      0.00000000	      0.00000000	      0.00000000	      3.70260143	      1.00842452	   -773.35314941	   -241.88467713	  -1075.53173539	      0.00000000	      0.00000000	     -0.00000000	   -981.52779567	      0.00000000	     -0.00000000	      0.00000000	      0.00000000	      0.00000000	      0.00000000	      0.00000000	      0.00000000	      0.00000000	    -34.85613108	     16.31306190	     75.69427490	    603.90366390	   -566.38042728	      0.00000000	      0.00000000	      0.00000000	     23.04081412
      4.20000000	      0.00000000	     -0.00000000	      0.00000000	      0.00000000	      0.00000000	      0.00000000	      0.00000000	      0.00000000	      0.00000000	      1.81245160	      2.63479662	   -771.14678955	   -241.95003146	  -1076.05196190	      0.00000000	      0.00000000	     -0.00000000	  -1385.34250527	      0.00000000	     -0.00000000	      0.00000000	      0.00000000	      0.00000000	      0.00000000	      0.00000000	      0.00000000	      0.00000000	    -34.82082607	     16.14415282	     75.34243011	    606.33026370	   -562.92573956	      0.00000000	      0.00000000	     -0.00000000	   -188.20108097
      4.21000000	      0.00000000	     -0.00000000	      0.00000000	      0.00000000	      0.00000000	      0.00000000	      0.00000000	      0.00000000	      0.00000000	      0.67447370	      4.45652008	   -768.47680664	   -241.10552372	  -1076.45682488	      0.00000000	      0.00000000	     -0.00000000	  -1451.73135117	      0.00000000	     -0.00000000	      0.00000000	      0.00000000	      0.00000000	      0.00000000	      0.00000000	      0.00000000	      0.00000000	    -34.94946150	     15.89566441	     75.57969666	    604.35886718	   -563.88210340	      0.00000000	     -0.00000000	     -0.00000000	    -38.27527818
      4.22000000	      0.00000000	     -0.00000000	      0.00000000	      0.00000000	      0.00000000	      0.00000000	      0.00000000	      0.00000000	      0.00000000	     -0.22836420	      6.40672255	   -767.45996094	   -240.23835730	  -1077.21338399	      0.00000000	     -0.00000000	     -0.00000000	  -1675.27823124	      0.00000000	     -0.00000000	      0.00000000	      0.00000000	      0.00000000	      0.00000000	      0.00000000	      0.00000000	      0.00000000	    -34.99672557	     16.22623368	     75.56836700	    606.93493148	   -564.34510803	      0.00000000	      0.00000000	     -0.00000000	   -199.38202969
      4.23000000	      0.00000000	     -0.00000000	      0.00000000	      0.00000000	      0.00000000	      0.00000000	      0.00000000	      0.00000000	      0.00000000	     -0.87105489	      6.07138300	   -763.48077393	   -238.48790134	  -1076.30728142	      0.00000000	      0.00000000	     -0.00000000	  -1559.65562293	      0.00000000	     -0.00000000	      0.00000000	      0.00000000	      0.00000000	      0.00000000	      0.00000000	      0.00000000	      0.00000000	    -34.72872785	     16.01459807	     75.10375977	    606.75580300	   -565.36325109	      0.00000000	      0.00000000	     -0.00000000	    -94.99221808
      4.24000000	      0.00000000	     -0.00000000	      0.00000000	      0.00000000	      0.00000000	      0.00000000	      0.00000000	      0.00000000	      0.00000000	     -2.06223869	      4.26787138	   -761.49707031	   -236.74592991	  -1075.54083945	      0.00000000	     -0.00000000	     -0.00000000	  -1376.70288946	      0.00000000	     -0.00000000	      0.00000000	      0.00000000	      0.00000000	      0.00000000	      0.00000000	      0.00000000	      0.00000000	    -34.74950270	     15.90535468	     77.16935730	    598.33523322	   -563.59276780	      0.00000000	     -0.00000000	     -0.00000000	     -1.01704525
      4.25000000	      0.00000000	     -0.00000000	      0.00000000	      0.00000000	      0.00000000	      0.00000000	      0.00000000	      0.00000000	      0.00000000	     -2.61630511	      2.39465237	   -758.71185303	   -236.12101617	  -1074.02404838	      0.00000000	      0.00000000	     -0.00000000	  -1310.79529473	      0.00000000	     -0.00000000	      0.00000000	      0.00000000	      0.00000000	      0.00000000	      0.00000000	      0.00000000	      0.00000000	    -34.87870648	     16.05450554	     76.54718781	    601.81902101	   -564.12513368	      0.00000000	      0.00000000	     -0.00000000	     -1.63357683
      4.26000000	      0.00000000	     -0.00000000	      0.00000000	      0.00000000	      0.00000000	      0.00000000	      0.00000000	      0.00000000	      0.00000000	     -2.10150647	     -0.20766085	   -758.86352539	   -235.61959975	  -1073.98321046	      0.00000000	      0.00000000	     -0.00000000	   -919.01183322	      0.00000000	     -0.00000000	      0.00000000	      0.00000000	      0.00000000	      0.00000000	      0.00000000	      0.00000000	      0.00000000	    -34.85899212	     16.18456573	     75.92273712	    603.88656820	   -564.95125734	      0.00000000	      0.00000000	      0.00000000	     12.13849650
      4.27000000	      0.00000000	     -0.00000000	      0.00000000	      0.00000000	      0.00000000	      0.00000000	      0.00000000	      0.00000000	      0.00000000	     -2.81512809	     -1.28739822	   -755.17785645	   -234.65445087	  -1072.75648166	      0.00000000	      0.00000000	     -0.00000000	   -822.89400739	      0.00000000	     -0.00000000	      0.00000000	      0.00000000	      0.00000000	      0.00000000	      0.00000000	      0.00000000	      0.00000000	    -34.67988829	     15.86482637	     75.49324036	    604.83811886	   -567.92176203	      0.00000000	      0.00000000	      0.00000000	    243.41978839
      4.28000000	      0.00000000	     -0.00000000	      0.00000000	      0.00000000	      0.00000000	      0.00000000	      0.00000000	      0.00000000	      0.00000000	     -3.48905325	     -2.09948182	   -754.47033691	   -234.50759851	  -1072.40973148	      0.00000000	      0.00000000	     -0.00000000	   -695.58162021	      0.00000000	     -0.00000000	      0.00000000	      0.00000000	      0.00000000	      0.00000000	      0.00000000	      0.00000000	      0.00000000	    -34.78967143	     16.31368560	     75.37408447	    602.70403600	   -566.05964727	      0.00000000	      0.00000000	     -0.00000000	    -38.32455167
      4.29000000	      0.00000000	     -0.00000000	      0.00000000	      0.00000000	      0.00000000	      0.00000000	      0.00000000	      0.00000000	      0.00000000	     -4.34128189	     -3.46549153	   -754.35388184	   -234.07848805	  -1071.65852221	      0.00000000	     -0.00000000	      0.00000000	   -729.15828772	      0.00000000	     -0.00000000	      0.00000000	      0.00000000	      0.00000000	      0.00000000	      0.00000000	      0.00000000	      0.00000000	    -34.77846769	     16.00500220	     75.17862701	    607.90244942	   -563.95588418	      0.00000000	      0.00000000	     -0.00000000	   -140.98716962
      4.30000000	      0.00000000	     -0.00000000	      0.00000000	      0.00000000	      0.00000000	      0.00000000	      0.00000000	      0.00000000	      0.00000000	     -5.24422741	     -4.02045584	   -755.91900635	   -232.76903009	  -1070.86179062	      0.00000000	      0.00000000	     -0.00000000	   -671.25146930	      0.00000000	     -0.00000000	      0.00000000	      0.00000000	      0.00000000	      0.00000000	      0.00000000	      0.00000000	      0.00000000	    -34.93824246	     16.03588982	     75.11288452	    607.49867537	   -565.36028784	      0.00000000	      0.00000000	      0.00000000	     31.80317167
      4.31000000	      0.00000000	     -0.00000000	      0.00000000	      0.00000000	      0.00000000	      0.00000000	      0.00000000	      0.00000000	      0.00000000	     -6.45149374	     -4.92104673	   -757.92419434	   -231.75250233	  -1070.24830796	      0.00000000	      0.00000000	     -0.00000000	   -512.80824563	      0.00000000	     -0.00000000	      0.00000000	      0.00000000	      0.00000000	      0.00000000	      0.00000000	      0.00000000	      0.00000000	    -34.83016446	     16.09524268	     75.87841034	    604.47064758	   -561.64042119	      0.00000000	      0.00000000	     -0.00000000	   -109.53168598
      4.32000000	      0.00000000	     -0.00000000	      0.00000000	      0.00000000	      0.00000000	      0.00000000	      0.00000000	      0.00000000	      0.00000000	     -7.40447235	     -5.91320801	   -760.78643799	   -230.45481292	  -1070.36527376	      0.00000000	      0.00000000	     -0.00000000	   -279.14110838	      0.00000000	     -0.00000000	      0.00000000	      0.00000000	      0.00000000	      0.00000000	      0.00000000	      0.00000000	      0.00000000	    -34.92896130	     16.05498429	     75.96320343	    604.63681452	   -562.94521970	      0.00000000	      0.00000000	     -0.00000000	    -79.40372396
      4.33000000	      0.00000000	     -0.00000000	      0.00000000	      0.00000000	      0.00000000	      0.00000000	      0.00000000	      0.00000000	      0.00000000	     -8.90266514	     -7.09964418	   -760.20159912	   -228.56282806	  -1069.43342658	      0.00000000	      0.00000000	     -0.00000000	   -245.51661229	      0.00000000	     -0.00000000	      0.00000000	      0.00000000	      0.00000000	      0.00000000	      0.00000000	      0.00000000	      0.00000000	    -34.81738140	     16.17222900	     75.10375977	    609.41496250	   -567.55222816	      0.00000000	      0.00000000	     -0.00000000	    -87.96779213
      4.34000000	      0.00000000	     -0.00000000	      0.00000000	      0.00000000	      0.00000000	      0.00000000	      0.00000000	      0.00000000	      0.00000000	    -10.65222073	     -7.76337910	   -760.39636230	   -227.20982179	  -1069.47696233	      0.00000000	      0.00000000	     -0.00000000	   -451.88987863	      0.00000000	     -0.00000000	      0.00000000	      0.00000000	      0.00000000	      0.00000000	      0.00000000	      0.00000000	      0.00000000	    -34.85333111	     16.13617439	     76.15661621	    602.35517160	   -565.83565332	      0.00000000	      0.00000000	     -0.00000000	    -20.17281117
      4.35000000	      0.00000000	     -0.00000000	      0.00000000	      0.00000000	      0.00000000	      0.00000000	      0.00000000	      0.00000000	      0.00000000	    -12.84631348	     -7.69641542	   -760.71429443	   -226.00796740	  -1069.34553433	      0.00000000	     -0.00000000	     -0.00000000	   -346.90194564	      0.00000000	     -0.00000000	      0.00000000	      0.00000000	      0.00000000	      0.00000000	      0.00000000	      0.00000000	      0.00000000	    -34.97826245	     16.03218194	     74.56018066	    609.91622219	   -566.72917890	      0.00000000	      0.00000000	     -0.00000000	    -19.47921693
      4.36000000	      0.00000000	     -0.00000000	      0.00000000	      0.00000000	      0.00000000	      0.00000000	      0.00000000	      0.00000000	      0.00000000	    -14.81771183	     -7.02378368	   -758.98364258	   -224.30651985	  -1069.42058262	      0.00000000	      0.00000000	     -0.00000000	   -256.37917573	      0.00000000	     -0.00000000	      0.00000000	      0.00000000	      0.00000000	      0.00000000	      0.00000000	      0.00000000	      0.00000000	    -34.81652691	     16.17725677	     76.38264465	    603.26805881	   -563.60995917	      0.00000000	      0.00000000	     -0.00000000	   -125.93785367
      4.37000000	      0.00000000	     -0.00000000	      0.00000000	      0.00000000	      0.00000000	      0.00000000	      0.00000000	      0.00000000	      0.00000000	    -16.62771797	     -6.27937698	   -757.46838379	   -223.33670331	  -1069.42349933	      0.00000000	      0.00000000	      0.00000000	   -527.39306202	      0.00000000	     -0.00000000	      0.00000000	      0.00000000	      0.00000000	      0.00000000	      0.00000000	      0.00000000	      0.00000000	    -34.77394725	     16.26080436	     75.64678955	    605.41472413	   -562.19604417	      0.00000000	      0.00000000	     -0.00000000	   -188.96882659
